<svg width="170" height="51" viewBox="0 0 170 51" fill="none" xmlns="http://www.w3.org/2000/svg">
<path d="M9.03125 27.2812L28.0938 33.7188V43.3125L0.4375 32.0625V24.9375L9.03125 27.2812ZM28.0938 22.0625L9 28.625L0.4375 30.875V23.75L28.0938 12.5V22.0625ZM72.375 22.6875V41.375C71.6042 42.2292 70.4167 43.1458 68.8125 44.125C67.2292 45.0833 65.2292 45.9062 62.8125 46.5938C60.3958 47.2812 57.5521 47.625 54.2812 47.625C51.2604 47.625 48.5208 47.1458 46.0625 46.1875C43.6042 45.2083 41.4896 43.7812 39.7188 41.9062C37.9688 40.0104 36.6146 37.6979 35.6562 34.9688C34.7188 32.2188 34.25 29.0729 34.25 25.5312V23C34.25 19.4583 34.7292 16.3125 35.6875 13.5625C36.6458 10.8125 37.9896 8.5 39.7188 6.625C41.4688 4.72917 43.5208 3.29167 45.875 2.3125C48.25 1.33333 50.8542 0.84375 53.6875 0.84375C57.875 0.84375 61.2812 1.51042 63.9062 2.84375C66.5312 4.15625 68.5208 5.97917 69.875 8.3125C71.2292 10.625 72.0521 13.3021 72.3438 16.3438H61.8125C61.6042 14.8438 61.2083 13.5729 60.625 12.5312C60.0625 11.4688 59.25 10.6667 58.1875 10.125C57.125 9.5625 55.75 9.28125 54.0625 9.28125C52.75 9.28125 51.5521 9.5625 50.4688 10.125C49.4062 10.6875 48.5 11.5417 47.75 12.6875C47 13.8125 46.4167 15.2292 46 16.9375C45.6042 18.6458 45.4062 20.6458 45.4062 22.9375V25.5312C45.4062 27.8021 45.5938 29.7917 45.9688 31.5C46.3646 33.2083 46.9479 34.6354 47.7188 35.7812C48.5104 36.9062 49.5104 37.7604 50.7188 38.3438C51.9479 38.9062 53.3958 39.1875 55.0625 39.1875C56.2292 39.1875 57.2292 39.0938 58.0625 38.9062C58.8958 38.6979 59.5833 38.4479 60.125 38.1562C60.6875 37.8438 61.1146 37.5521 61.4062 37.2812V30.2188H53.7812V22.6875H72.375ZM100.812 1.5V47H89.8438V1.5H100.812ZM114.5 1.5V9.96875H76.4688V1.5H114.5ZM137.844 1.5L122.281 50.9062H114.781L130.344 1.5H137.844ZM160.656 28.5312L141.656 22.0938V12.5312L169.156 23.7812V30.9375L160.656 28.5312ZM141.656 33.7812L160.656 27.1875L169.156 24.9688V32.0938L141.656 43.3438V33.7812Z" fill="#FEFEFE"/>
</svg>
